# xmcd
#
# Track frame offsets:
#	150
#	15362
#	39239
#	55539
#	69092
#	86429
#	97842
#	119237
#	141468
#	157471
#	177621
#	191225
#	209523
#	220153
#	237386
#
# Disc length: 3476 seconds
#
# Revision: 1
# Processed by: cddbd v1.5.2PL0 Copyright (c) Steve Scherf et al.
# Submitted via: audiograbber 1.83.01
#
DISCID=da0d920f
DTITLE=ChartBuster - CB90246
DYEAR=1900
DGENRE=Karaoke
TTITLE0=John Prine - Illegal Smile
TTITLE1=John Prine - Ain't Hurtin' Nobody
TTITLE2=John Prine - Dear Abby
TTITLE3=John Prine - Please Don't Bury Me
TTITLE4=John Prine - Souvenirs
TTITLE5=John Prine - Grandpa Was A Carpenter
TTITLE6=John Prine - Hello In There
TTITLE7=John Prine - You Got Gold
TTITLE8=John Prine - Paradise
TTITLE9=John Prine - Sam Stone
TTITLE10=John Prine - Spanish Pipedream
TTITLE11=John Prine - Angel From Montgomery
TTITLE12=John Prine - Yes, I Guess They Oughta Name A Drink After You
TTITLE13=John Prine - Take A Look At My Heart
TTITLE14=John Prine - Great Compromise
EXTD=
EXTT0=
EXTT1=
EXTT2=
EXTT3=
EXTT4=
EXTT5=
EXTT6=
EXTT7=
EXTT8=
EXTT9=
EXTT10=
EXTT11=
EXTT12=
EXTT13=
EXTT14=
PLAYORDER=
